#!OML:ASF H:\Dans Jumps\Project 1\Capture day 1\Session 1\subject.ASF
:FULLY-SPECIFIED
:DEGREES
225
root 0.269097 17.8993 -6.90424 15.15 -0.0618382 -2.53785
lowerback 14.7559 1.00235 -1.39747
upperback 5.19617 1.17388 1.47987
thorax -2.83559 0.561416 2.14158
lowerneck -7.81534 -0.139321 -0.625608
upperneck 14.5497 -0.0456181 -0.362029
head 5.67798 -0.0807558 -0.0136055
rclavicle 1.14301e-014 2.93207e-015
rhumerus -4.45501 0.875878 -74.6378
rradius 44.7494
rwrist 19.4787
rhand -22.4755 -20.2341
rfingers 7.12502
rthumb 3.94961 -50.1772
lclavicle 1.14301e-014 2.93207e-015
lhumerus -10.4086 -13.4407 68.1845
lradius 33.4168
lwrist 32.6231
lhand -23.6897 -7.45349
lfingers 7.12502
lthumb 2.77699 22.5082
rfemur -20.2678 -3.76169 21.3409
rtibia 53.5442
rfoot 12.5586 -10.5855
rtoes -3.44451
lfemur -19.889 6.65549 -15.0587
ltibia 51.9086
lfoot 20.9229 4.8709
ltoes -20.8313
226
root 0.276763 18.1112 -6.60215 14.7075 -0.287265 -2.49735
lowerback 14.06 1.00265 -1.45719
upperback 5.26378 1.16952 1.39862
thorax -2.39095 0.555185 2.09878
lowerneck -7.40895 -0.0690059 -0.625454
upperneck 14.9498 0.0407963 -0.315837
head 5.73313 -0.0365402 0.00705911
rclavicle -3.11843e-015 -7.10655e-015
rhumerus -4.94451 0.53649 -74.6575
rradius 44.8807
rwrist 19.3914
rhand -22.4744 -20.1841
rfingers 7.12502
rthumb 3.95063 -50.1273
lclavicle -3.11843e-015 -7.10655e-015
lhumerus -11.0489 -13.7556 68.0845
lradius 33.8616
lwrist 31.1367
lhand -24.1284 -7.78318
lfingers 7.12502
lthumb 2.35336 22.1836
rfemur -20.3873 -3.33195 21.1635
rtibia 54.0923
rfoot 16.0662 -10.866
rtoes 4.77712
lfemur -19.5761 6.033 -15.0416
ltibia 51.7857
lfoot 25.2229 4.51443
ltoes -15.9176
227
root 0.282666 18.3156 -6.31036 14.4218 -0.451131 -2.44694
lowerback 13.3904 0.991675 -1.54124
upperback 5.32147 1.14939 1.33207
thorax -1.97001 0.540937 2.08768
lowerneck -7.10571 -0.0115076 -0.605022
upperneck 15.1969 0.108055 -0.27524
head 5.75815 -0.000537788 0.0211657
rclavicle 1.93815e-015 1.55301e-015
rhumerus -5.47559 0.0361838 -74.645
rradius 45.0096
rwrist 19.3754
rhand -22.4168 -20.2204
rfingers 7.12502
rthumb 4.00632 -50.1625
lclavicle 1.93815e-015 1.55301e-015
lhumerus -11.6837 -13.9164 68.0089
lradius 34.3049
lwrist 30.059
lhand -24.4982 -8.10618
lfingers 7.12502
lthumb 1.99623 21.8642
rfemur -20.8892 -2.95512 21.0571
rtibia 54.8354
rfoot 18.5477 -11.0899
rtoes 11.3045
lfemur -19.7392 5.5074 -15.0697
ltibia 52.0129
lfoot 28.2957 4.30572
ltoes -11.9394
228
root 0.286563 18.51 -6.03014 14.2307 -0.544921 -2.38645
lowerback 12.8058 0.969538 -1.64755
upperback 5.38266 1.11329 1.28028
thorax -1.59036 0.518394 2.10597
lowerneck -6.92947 0.0271229 -0.576804
upperneck 15.3636 0.148489 -0.228442
head 5.77985 0.0235003 0.034004
rclavicle 1.33869e-015 5.52249e-015
rhumerus -6.03254 -0.588405 -74.5927
rradius 45.0837
rwrist 19.4284
rhand -22.31 -20.3203
rfingers 7.12502
rthumb 4.10942 -50.2605
lclavicle 1.33869e-015 5.52249e-015
lhumerus -12.2777 -13.9398 67.9629
lradius 34.7284
lwrist 29.6144
lhand -24.7777 -8.36172
lfingers 7.12502
lthumb 1.72624 21.611
rfemur -21.6786 -2.64207 21.0147
rtibia 55.7211
rfoot 19.9987 -11.0521
rtoes 15.3971
lfemur -20.2964 5.09897 -15.131
ltibia 52.5815
lfoot 29.912 4.0861
ltoes -9.33218
229
root 0.288438 18.6921 -5.76238 14.0777 -0.567563 -2.31942
lowerback 12.3647 0.940357 -1.76812
upperback 5.44977 1.06652 1.24296
thorax -1.28116 0.490422 2.14698
lowerneck -6.85511 0.0401317 -0.557343
upperneck 15.4928 0.152754 -0.16071
head 5.80743 0.0311188 0.0523728
rclavicle 9.77772e-015 5.59082e-015
rhumerus -6.61913 -1.3019 -74.4964
rradius 45.0716
rwrist 19.5209
rhand -22.1849 -20.4591
rfingers 7.12502
rthumb 4.23022 -50.3968
lclavicle 9.77772e-015 5.59082e-015
lhumerus -12.8131 -13.8802 67.9506
lradius 35.105
lwrist 29.9107
lhand -24.9437 -8.51539
lfingers 7.12502
lthumb 1.56596 21.4586
rfemur -22.6681 -2.38858 21.0284
rtibia 56.6815
rfoot 20.5627 -10.7407
rtoes 17.4315
lfemur -21.1637 4.80574 -15.2139
ltibia 53.4528
lfoot 30.129 3.86013
ltoes -8.0233
230
root 0.288605 18.861 -5.50621 13.9028 -0.518814 -2.24328
lowerback 12.1128 0.905891 -1.90111
upperback 5.53568 1.0103 1.22106
thorax -1.05403 0.457646 2.20997
lowerneck -6.89845 0.0298054 -0.554537
upperneck 15.6435 0.125571 -0.0749438
head 5.86216 0.0238457 0.0770592
rclavicle 1.83876e-015 1.2424e-016
rhumerus -7.23183 -2.06014 -74.3542
rradius 44.9697
rwrist 19.6169
rhand -22.0729 -20.6204
rfingers 7.12502
rthumb 4.33835 -50.5559
lclavicle 1.83876e-015 1.2424e-016
lhumerus -13.2852 -13.7574 67.9818
lradius 35.4156
lwrist 30.8994
lhand -24.99 -8.52958
lfingers 7.12502
lthumb 1.52122 21.4447
rfemur -23.7541 -2.19939 21.0798
rtibia 57.6338
rfoot 20.4636 -10.312
rtoes 17.9986
lfemur -22.2344 4.59855 -15.3135
ltibia 54.5517
lfoot 29.2723 3.71805
ltoes -7.69334
231
root 0.287252 19.0168 -5.26063 13.6652 -0.393448 -2.16995
lowerback 12.0758 0.865991 -2.02996
upperback 5.64772 0.945039 1.22012
thorax -0.91505 0.420545 2.29128
lowerneck -7.02793 -0.00263675 -0.565594
upperneck 15.8249 0.0698921 0.0159155
head 5.94164 0.00245101 0.103697
rclavicle 2.85753e-015 -4.69629e-015
rhumerus -7.88084 -2.82508 -74.1656
rradius 44.7949
rwrist 19.6932
rhand -22.0202 -20.7777
rfingers 7.12502
rthumb 4.38928 -50.7122
lclavicle 2.85753e-015 -4.69629e-015
lhumerus -13.6935 -13.5876 68.054
lradius 35.6399
lwrist 32.4081
lhand -24.8654 -8.45314
lfingers 7.12502
lthumb 1.64154 21.5203
rfemur -24.8548 -2.07942 21.168
rtibia 58.495
rfoot 19.9752 -9.9471
rtoes 17.9417
lfemur -23.4272 4.44225 -15.4066
ltibia 55.7853
lfoot 27.8426 3.71077
ltoes -7.69701
232
root 0.284782 19.1605 -5.02345 13.3376 -0.195375 -2.09556
lowerback 12.267 0.817987 -2.15791
upperback 5.78743 0.865754 1.24113
thorax -0.869388 0.376759 2.39488
lowerneck -7.24165 -0.0465046 -0.587732
upperneck 16.0565 0.00220474 0.0964646
head 6.05179 -0.0260205 0.128059
rclavicle 3.8763e-015 -4.37326e-015
rhumerus -8.56055 -3.56721 -73.9399
rradius 44.5487
rwrist 19.7616
rhand -22.0433 -20.9056
rfingers 7.12502
rthumb 4.36697 -50.8405
lclavicle 3.8763e-015 -4.37326e-015
lhumerus -14.0599 -13.3865 68.1666
lradius 35.7606
lwrist 34.2116
lhand -24.5508 -8.31911
lfingers 7.12502
lthumb 1.9454 21.6518
rfemur -25.8997 -2.04096 21.2728
rtibia 59.1882
rfoot 19.3223 -9.71487
rtoes 17.6884
lfemur -24.6633 4.30692 -15.4909
ltibia 57.0489
lfoot 26.3228 3.83739
ltoes -7.44336
